<svg id="Layer_1" data-name="Layer 1" xmlns="http://www.w3.org/2000/svg" viewBox="0 0 50 50"><defs><style>.cls-1{fill:none;}.cls-2{fill:#67b770;}</style></defs><title>share</title><rect class="cls-1" width="50" height="50"/><path class="cls-2" d="M33.87,4.48c0,0.13,0,.26,0,0.39,0,2.11,0,4.22,0,6.32a0.3,0.3,0,0,1-.37.36c-1.15,0-2.29,0-3.44,0a7.08,7.08,0,0,0-1.17.14,1.56,1.56,0,0,0-1.28,1.54c-0.06,1.48,0,3-.08,4.45,0,0.27.18,0.22,0.33,0.22h6L33.14,25H27.53c0,0.17,0,20.41,0,20.53H19.84c0-.61,0-20.32,0-20.52H14.74c0-.14,0-4.6,0-6.71a0.3,0.3,0,0,1,.37-0.37c1.46,0,2.93,0,4.39,0,0.31,0,.38-0.1.38-0.39,0-1.9,0-3.8.07-5.7a9.34,9.34,0,0,1,1-4A5.38,5.38,0,0,1,24.15,5.1a15,15,0,0,1,4.63-.62C29.2,4.48,33.87,4.52,33.87,4.48Z"/></svg>