<svg id="Layer_1" data-name="Layer 1" xmlns="http://www.w3.org/2000/svg" viewBox="0 0 300 300"><defs><style>.cls-1{fill:#fdd933;}.cls-2{fill:#67b770;}</style></defs><title>veg</title><path class="cls-1" d="M213.79,190.91c-30.7-27.2-86.65-144.78-86.65-144.78a288.9,288.9,0,0,0-22.46,22.68c0.42,0.41.82,0.81,1.18,1.19,9,9.36,12.44,44.78,12.61,72s-10.72,35.44-10.72,35.44-12.93,11.09-12.13,18.7,34.06,57.47,34.06,57.47,1.78,3.09,4.33,7.58c7.88,5.67,15.19,10.32,21.08,13.88,42.68,25.89,116,2.68,129.94-58.93C287.12,207,244.49,218.11,213.79,190.91Z"/><path class="cls-2" d="M101,58.66c13.17,28.25,10.16,64-9.44,88.23-21,26-58,37.58-73.49,67.26l-1.5.79C9,183,11.49,148.41,26,119S67.57,66.14,99.4,58.36Z"/><path d="M96.09,192c11.76,33.45,33,66.55,67.16,80.36,34.9,14.12,81.77,6.3,107-22.47C293.86,223,293.18,185,285,152.19c-9-35.86-28.15-71.24-56.35-95.56C213.05,43.19,193.57,32.46,172.7,31.1c-22.47-1.47-43.94,8.21-59.38,24.25-1.34,1.39.78,3.52,2.12,2.12C129.27,43.1,148,34,168.12,34c18.52,0,36.21,8,50.9,18.82,29,21.33,49,54.73,59.77,88.63,9.54,30,14.06,66.06-2.27,94.58-19.56,34.18-64.6,46.42-101.33,37.12-39-9.88-63.55-45.89-76.22-81.92-0.64-1.81-3.54-1-2.89.8h0Z"/><path d="M115.38,54.28A43.42,43.42,0,0,0,103,62.79c-1.39,1.35.73,3.47,2.12,2.12a41.08,41.08,0,0,1,11.75-8c1.76-.79.23-3.38-1.51-2.59h0Z"/><path d="M120,52.3C108.38,43.73,100.39,32,99.13,17.43c-0.17-1.91-3.17-1.93-3,0,1.37,15.78,9.8,28.2,22.36,37.47C120,56,121.54,53.44,120,52.3h0Z"/><path d="M99.07,29.94C95.94,99.21,51.7,157,36.16,223.15c-4.25,18.09-6.21,36.65-4.64,55.2,0.16,1.91,3.16,1.93,3,0C28.62,208.28,72,148.07,92.06,83.82c5.47-17.52,9.18-35.53,10-53.89,0.09-1.93-2.91-1.93-3,0h0Z"/><path d="M31.56,280C2.9,217.07,6.92,139.45,55.86,87.67A140.11,140.11,0,0,1,97.4,57.35c1.74-.83.22-3.42-1.51-2.59C67.23,68.41,44,91.85,29.21,119.8,12.68,151,7.34,186.9,11.76,221.76A206.78,206.78,0,0,0,29,281.47c0.8,1.75,3.39.23,2.59-1.51h0Z"/><path d="M97.5,56.78c20.65,28.41,28,66.38,17.21,100.08-10.29,32.22-37.31,53.89-58.61,78.69-11,12.87-20.65,27-25.54,43.36-0.55,1.85,2.34,2.65,2.89.8,9.8-32.86,38.09-54.69,59.4-79.94,10.27-12.17,19.16-25.46,24.27-40.65a111.44,111.44,0,0,0,4.38-50.54,118.25,118.25,0,0,0-21.42-53.31c-1.12-1.55-3.73-.05-2.59,1.51h0Z"/><path d="M221.45,276.75l13.26,6.05c2.13,1,5.12,3,7.61,2.08s3.2-4.3,4.11-6.33l6.07-13.62c0.78-1.75-1.81-3.28-2.59-1.51l-3.79,8.51c-1,2.18-2.21,7.51-4,9-3.15,2.55-15.5-5.1-19.12-6.75-1.74-.8-3.27,1.79-1.51,2.59h0Z"/><path d="M113.25,59.62A10.63,10.63,0,0,0,126,49.38a1.5,1.5,0,0,0-3,0,7.59,7.59,0,0,1-9,7.35c-1.88-.42-2.68,2.47-0.8,2.89h0Z"/><path d="M264,178.5a1.5,1.5,0,0,0,0-3,1.5,1.5,0,0,0,0,3h0Z"/><path d="M270,198.5a1.5,1.5,0,0,0,0-3,1.5,1.5,0,0,0,0,3h0Z"/><path d="M255,227.5a1.5,1.5,0,0,0,0-3,1.5,1.5,0,0,0,0,3h0Z"/><path d="M231,246.5a1.5,1.5,0,0,0,0-3,1.5,1.5,0,0,0,0,3h0Z"/><path d="M217.5,223v-1a1.5,1.5,0,0,0-3,0v1a1.5,1.5,0,0,0,3,0h0Z"/><path d="M239,206.5a1.5,1.5,0,0,0,0-3,1.5,1.5,0,0,0,0,3h0Z"/><path d="M248,188.5a1.5,1.5,0,0,0,0-3,1.5,1.5,0,0,0,0,3h0Z"/><path d="M256,149.5a1.5,1.5,0,0,0,0-3,1.5,1.5,0,0,0,0,3h0Z"/><path d="M251.06,117.94l-1-1a1.5,1.5,0,0,0-2.12,2.12l1,1a1.5,1.5,0,0,0,2.12-2.12h0Z"/><path d="M229,92.5a1.5,1.5,0,0,0,0-3,1.5,1.5,0,0,0,0,3h0Z"/><path d="M192.5,256v1a1.5,1.5,0,0,0,3,0v-1a1.5,1.5,0,0,0-3,0h0Z"/></svg>