<svg id="Layer_1" data-name="Layer 1" xmlns="http://www.w3.org/2000/svg" viewBox="0 0 300 300"><defs><style>.cls-1{fill:#aaacc2;}.cls-2{fill:#41926d;}.cls-3{fill:#67b770;}</style></defs><title>veg</title><path class="cls-1" d="M180.93,81.46s-44.7-12.84-30.24-56.84C150.69,24.62,182.49,39.22,180.93,81.46Z"/><path class="cls-2" d="M189.6,51.81S233.48,14,269.41,59.14C269.41,59.14,245,72.92,189.6,51.81Z"/><path class="cls-3" d="M118.23,70s-2.15,86.81,10,104.3,70.59,88.84,25.38,116.78c0,0-103.82-.95-122.37-102C23.06,144.68,49.42,69.43,118.23,70Z"/><path class="cls-2" d="M215,241.84s-18.77,64.27-89.93,45S187.14,225.59,215,241.84Z"/><path d="M174.25,93C161.57,73.75,136.8,67.24,115,70.21,90.79,73.5,69.63,87.45,54.6,106.32c-15.36,19.28-27,43.95-27.28,68.91-0.3,24.63,9.35,48.67,24.22,68.06,6.42,8.37,14,16,23,21.53a55.08,55.08,0,0,0,14.55,6.37c3.16,0.84,5.93,1.08,8.71,3.12,2.59,1.9,4.83,4.11,7.56,5.86,19.11,12.23,42.94,10.66,63.74,4.14,20-6.26,38.88-17.25,53.43-32.37,14.83-15.41,22.8-33.86,25-55,2.67-25.73-.72-54.57-14.79-76.82C220.05,100,195.6,86.28,171.7,92.88a1.5,1.5,0,0,0,.8,2.89c21.79-6,44.24,6,56.48,24,12.48,18.37,16.63,42,16.36,63.84-0.26,20.64-4.57,40.38-17.12,57.13-11.77,15.71-28.37,27.61-46.21,35.53-18.63,8.27-40.52,13.42-60.59,7.75a54.21,54.21,0,0,1-14.51-6.44c-4.38-2.8-7.62-7-12.76-8.34-10.79-2.82-19.8-7.1-28.19-14.63C50,240.33,38.21,219.82,33.12,199.1c-6.2-25.23-1-49.41,11.27-71.91,12.34-22.71,31.35-42.3,56.3-50.58,24.06-8,55.85-5,71,17.86,1.06,1.6,3.66.1,2.59-1.51h0Z"/><path d="M192.67,19.82a291.83,291.83,0,0,1-19.9,73.71c-0.74,1.78,2.16,2.56,2.89.8a294.6,294.6,0,0,0,20-74.5c0.25-1.91-2.75-1.89-3,0h0Z"/><path d="M188.88,55c6.27-4.46,12.69-9,20-11.65,8.34-3,16.91-2.23,25.22.48,12.71,4.15,30.29,11.14,35,24.95l0.69-1.69c-13.65,10.17-30.9,17.27-48.19,14.38-15-2.51-28.74-12.73-33.2-27.58-0.55-1.84-3.45-1.06-2.89.8C190.08,70,203.85,81,219.35,84.09c18.47,3.73,37.23-3.49,51.91-14.42a1.55,1.55,0,0,0,.69-1.69c-5-14.62-21.87-21.7-35.31-26.44-8.18-2.88-16.88-4.27-25.39-2.05-8.86,2.31-16.52,7.7-23.87,12.93-1.56,1.11-.06,3.71,1.51,2.59h0Z"/><path d="M188.1,56.74c13.17,4.88,26.46,9.79,40.35,12.17A94.63,94.63,0,0,0,247,70.35c7.72-.21,15.36-1.44,23.06-0.21,1.89,0.3,2.7-2.59.8-2.89-6.47-1-12.83-.54-19.33-0.13A96.41,96.41,0,0,1,229.25,66c-13.89-2.34-27.2-7.29-40.35-12.17-1.81-.67-2.59,2.23-0.8,2.89h0Z"/><path d="M248.66,68.2a79.84,79.84,0,0,0,10.48-12.51c0.81-1.2-1.13-2.33-1.94-1.14a77,77,0,0,1-10.13,12.06,1.13,1.13,0,0,0,1.59,1.59h0Z"/><path d="M246.18,69.65c3.11,2.7,5.24,6.37,7.29,9.89a1.13,1.13,0,0,0,1.94-1.14c-2.15-3.67-4.4-7.53-7.65-10.34-1.09-.94-2.69.64-1.59,1.59h0Z"/><path d="M246.32,49.25a81.12,81.12,0,0,1-14.56,18.12,1.13,1.13,0,0,0,0,1.59,31.88,31.88,0,0,1,10,13.43c0.53,1.33,2.7.75,2.17-.6a33.88,33.88,0,0,0-10.58-14.42V69a83.08,83.08,0,0,0,14.92-18.58,1.13,1.13,0,0,0-1.94-1.14h0Z"/><path d="M235.55,43.17A58.09,58.09,0,0,1,226,55.07a56.17,56.17,0,0,1-6.13,5c-1.13.8-2.79,1.51-3.61,2.67-1.5,2.1-.05,3.7,1.19,5.51,3.24,4.7,6.53,9.37,9.8,14.06,0.82,1.18,2.77.06,1.94-1.14l-7.62-10.93c-1.37-2-4.31-4.34-2.62-6.85,0.69-1,3.13-2.13,4.15-2.91a59.43,59.43,0,0,0,14.38-16.17,1.13,1.13,0,0,0-1.94-1.14h0Z"/><path d="M220,38.85A147.45,147.45,0,0,0,207.67,48c-2.22,1.79-4.41,3.63-6.59,5.46-1.25,1.06-3.65,2.33-4.39,3.86-1.15,2.37.85,3.71,2.35,5.41a53.09,53.09,0,0,1,10,17.11c0.49,1.35,2.67.77,2.17-.6a58,58,0,0,0-5-10.63c-0.91-1.48-1.9-2.91-2.95-4.3s-4.32-4.19-4.22-5.59c0.17-2.45,7.62-7,9.58-8.58a145.58,145.58,0,0,1,12.55-9.3c1.21-.79.08-2.73-1.14-1.94h0Z"/><path d="M100,268.16a14.29,14.29,0,0,1-7.24.52c-1.89-.36-2.7,2.53-0.8,2.89a17.47,17.47,0,0,0,8.83-.52c1.83-.6,1-3.5-0.8-2.89h0Z"/><path d="M91.66,265.95L98,276.61a1.5,1.5,0,0,0,2.59-1.51l-6.33-10.66a1.5,1.5,0,0,0-2.59,1.51h0Z"/></svg>