<svg id="Layer_1" data-name="Layer 1" xmlns="http://www.w3.org/2000/svg" viewBox="0 0 50 50"><defs><style>.cls-1{fill:#67b770;}.cls-2{fill:none;}</style></defs><title>share</title><path class="cls-1" d="M4.48,38.09A17.56,17.56,0,0,0,16.8,34.52a8.67,8.67,0,0,1-7.9-5.92,8.91,8.91,0,0,0,3.73-.12c-4.2-1.27-6.42-4-6.65-8.35a9.19,9.19,0,0,0,3.68.95C5.92,18,5.12,14.24,7.13,9.77a24.26,24.26,0,0,0,17.49,8.9c-0.05-.54-0.13-1-0.15-1.51a8.14,8.14,0,0,1,2.72-6.66,8.23,8.23,0,0,1,7.43-2.06,7.89,7.89,0,0,1,4.21,2.25,0.54,0.54,0,0,0,.58.17A17,17,0,0,0,44,9.13c0.12-.07.25-0.12,0.46-0.22A8.79,8.79,0,0,1,41,13.47a17.09,17.09,0,0,0,4.56-1.14c-0.23.32-.45,0.65-0.69,1a8.26,8.26,0,0,1-.8.92q-1.16,1.09-2.36,2.14a0.72,0.72,0,0,0-.3.64,22.61,22.61,0,0,1-.87,7.14A25,25,0,0,1,35.14,34a23,23,0,0,1-5,4.21,22.65,22.65,0,0,1-7.7,3.07,25.23,25.23,0,0,1-9.67.08,24.26,24.26,0,0,1-7.19-2.6C5.23,38.57,4.86,38.32,4.48,38.09Z"/><rect class="cls-2" width="50" height="50"/></svg>