<svg id="Layer_1" data-name="Layer 1" xmlns="http://www.w3.org/2000/svg" viewBox="0 0 300 446.99"><defs><style>.cls-1{fill:#ff9f1e;}</style></defs><title>veg</title><path class="cls-1" d="M187.11,135c-11.57-4.79-53,49.58-63.66,79.36S80.12,304.08,67,327.84s-50.18,100.89-39.5,94,61.94-107.28,76.67-120.47,79.93-77.4,86.19-89.75S244.32,158.67,187.11,135Z"/><path d="M196.51,136.74c-8.33-4.92-17.11-.51-23.66,5.25A186.66,186.66,0,0,0,149,166.89c-7.13,9.15-11.26,18.77-14.64,29.77-4,12.9-11.66,24.46-18.1,36.24Q77.47,303.82,43.91,377.42c-5.53,12.13-11.26,24.25-16.28,36.6-2.36,5.79-2.68,16.84,6.53,16.05,4.62-.4,8.61-4,11.74-7.14,4.53-4.52,8.76-9.39,13.05-14.15Q71.42,395,83.36,380.67A997.72,997.72,0,0,0,169.3,260.86c14.46-23.68,28.09-48,40.37-72.84,5.16-10.46,9.63-22.09,4.88-33.55a30.06,30.06,0,0,0-21.75-18,1.52,1.52,0,0,0-1.9,1.45c-0.28,7.47,7.67,12.4,14.32,9.36a1.5,1.5,0,0,0,.54-2.05,13.44,13.44,0,0,0-11.31-5.87,1.5,1.5,0,0,0,0,3,10.21,10.21,0,0,1,8.72,4.39l0.54-2.05c-4.74,2.17-10-1.8-9.8-6.77l-1.9,1.45a27.09,27.09,0,0,1,21,19.83c2.83,11.57-3.61,22.83-8.67,32.79q-15.07,29.64-32.1,58.23A991.9,991.9,0,0,1,96.92,359.3q-20.68,26-43.07,50.65c-3.32,3.64-6.59,7.38-10.07,10.86-1.93,1.93-5.78,6-8.74,6.06s-6-2.26-6.22-5.19c-0.19-2.59,1.14-5.51,2.11-7.81,4.69-11.16,9.77-22.18,14.78-33.2Q75,316.25,108.37,253.77q9.46-17.72,19.24-35.27a117.93,117.93,0,0,0,7.86-15.76c2.38-6.33,3.71-13,6.58-19.15,5-10.75,12.9-19.78,21.18-28.13,7.52-7.59,19.74-23.23,31.77-16.13a1.5,1.5,0,0,0,1.51-2.59h0Z"/><path d="M211.4,174.07a32.48,32.48,0,0,1-32.55-21.27c-0.64-1.81-3.54-1-2.89.8a35.52,35.52,0,0,0,35.45,23.47c1.92-.12,1.93-3.13,0-3h0Z"/><path d="M145.78,175.7c7,15.42,22.75,22.32,37.53,28.32,1.79,0.73,2.57-2.18.8-2.89-14.08-5.71-29.1-12.25-35.74-26.94-0.79-1.76-3.38-.23-2.59,1.51h0Z"/><path d="M160.72,271.32a47.68,47.68,0,0,1-33.07-22.58,1.5,1.5,0,0,0-2.59,1.51,50.53,50.53,0,0,0,34.86,24c1.89,0.32,2.7-2.57.8-2.89h0Z"/><path d="M154.83,280.51a28.36,28.36,0,0,1-20.2-14.31c-0.94-1.69-3.53-.18-2.59,1.51a31.2,31.2,0,0,0,22,15.69c1.89,0.33,2.7-2.56.8-2.89h0Z"/><path d="M86.3,292.72c5.73,11.31,17,17.42,27.93,22.9,1.72,0.86,3.24-1.72,1.51-2.59-10.44-5.25-21.35-11-26.85-21.83-0.87-1.72-3.46-.21-2.59,1.51h0Z"/><path d="M54.83,356.13a33.39,33.39,0,0,0,16.9,17c1.75,0.78,3.27-1.8,1.51-2.59a31,31,0,0,1-15.82-15.9c-0.78-1.76-3.37-.24-2.59,1.51h0Z"/><path d="M198.61,139A284.8,284.8,0,0,0,231.76,7.49a1.5,1.5,0,0,0-3,0,281.48,281.48,0,0,1-32.74,130c-0.9,1.7,1.68,3.22,2.59,1.51h0Z"/><path d="M199.87,141.3c8.87-42.73,66.25-47.21,82.56-85.5,0.75-1.76-1.84-3.29-2.59-1.51C263.43,92.8,206,97,197,140.51c-0.39,1.88,2.5,2.69,2.89.8h0Z"/><path d="M200.7,145.59a27.46,27.46,0,0,1,24.5-22.72c6.71-.6,13.47.27,20.2-0.27a94.27,94.27,0,0,0,19.14-3.65c1.85-.55,1.06-3.44-0.8-2.89a90.43,90.43,0,0,1-26,3.83c-6.88,0-13.86-.76-20.47,1.61A30.57,30.57,0,0,0,197.8,144.8c-0.34,1.89,2.56,2.7,2.89.8h0Z"/><path d="M229,33.65a68.08,68.08,0,0,1-12.62-12.78c-1.15-1.53-3.75,0-2.59,1.51a70.77,70.77,0,0,0,13.09,13.39c1.5,1.17,3.64-.93,2.12-2.12h0Z"/><path d="M231.39,36a48.32,48.32,0,0,0,14.72-13c0.75-1-.93-2-1.67-1a46,46,0,0,1-14,12.33,1,1,0,0,0,1,1.67h0Z"/><path d="M211.79,37.73c3.74,4.93,7.42,9.91,11.21,14.8,1.95,2.51,3.31,3.5,6.62,3,10.73-1.61,21.33-5.58,31.13-10.12,1.13-.52.15-2.2-1-1.67a131.19,131.19,0,0,1-23.6,8.38,31.7,31.7,0,0,1-5.3,1.2c-5.37.29-6.78-2.52-9.16-5.66l-8.26-10.9c-0.74-1-2.43,0-1.67,1h0Z"/><path d="M203,47.84a65.29,65.29,0,0,0,5.52,20c1.85,4,5.24,12.24,9.78,14,2,0.77,4-.06,5.82-0.73,3.77-1.38,7.49-2.9,11.2-4.45,7.49-3.14,14.85-6.56,22.1-10.22,1.11-.56.13-2.24-1-1.67-5.52,2.78-11.1,5.44-16.75,7.93q-4.55,2-9.17,3.86c-2.48,1-5.81,2.91-8.47,3.25-5.88.75-9.71-8.37-11.85-13a62.5,62.5,0,0,1-5.25-19c-0.14-1.22-2.09-1.24-1.94,0h0Z"/><path d="M269.26,56.42A81.57,81.57,0,0,0,267.06,74a1,1,0,0,0,.71.94,63.48,63.48,0,0,0,23.12.72c1.23-.19.71-2.05-0.52-1.87-5.76.87-13.22,1.68-18.9-.08-3.08-1-2.45-2.8-2.18-5.81a77.12,77.12,0,0,1,1.84-10.92,1,1,0,0,0-1.87-.52h0Z"/><path d="M253.38,88.66A67.47,67.47,0,0,0,287,90.53c1.22-.24.71-2.11-0.52-1.87a65.42,65.42,0,0,1-32.62-1.87,1,1,0,0,0-.52,1.87h0Z"/><path d="M262.25,110.12a22.92,22.92,0,0,0-7.82,5.58c-1.19,1.32-2.83,3-1.94,4.93s4.2,3.48,6,4.42a32.25,32.25,0,0,0,9.66,3.09c1.22,0.2,1.75-1.67.52-1.87a29.92,29.92,0,0,1-12.51-4.87c-1.17-.81-2.15-1.33-1.54-2.89a12.36,12.36,0,0,1,2.64-2.92,21.68,21.68,0,0,1,6-3.78c1.14-.51.15-2.18-1-1.67h0Z"/><path d="M251.61,105.39a39.12,39.12,0,0,0-12.52,6.31c-2.67,2.06-6.77,5.16-7.86,8.51-1,3.13,2,4.78,4.12,6.41q7.86,6,16.08,11.54c1.6,1.08,3.11-1.52,1.51-2.59-3.13-2.11-6.23-4.26-9.28-6.47q-2.29-1.66-4.55-3.36c-2.4-1.81-5.48-2.75-3.69-6.42,2.68-5.49,11.58-9.38,17-11,1.84-.56,1.06-3.46-0.8-2.89h0Z"/></svg>