<svg id="Layer_1" data-name="Layer 1" xmlns="http://www.w3.org/2000/svg" viewBox="0 0 300 300"><defs><style>.cls-1{fill:#a02ace;}.cls-2{fill:#a02a89;}</style></defs><title>veg</title><path class="cls-1" d="M260.68,160.67c-5.3,42.78-38.75,72.43-76,89.6a260.85,260.85,0,0,1-61.19,19c-19.79,3.7-74.67-4.22-83.6,19.06-3.77-8.45.49-16.32,16.72-56.35,0,0,27.73-45.58,58.07-34C226.48,240.68,255.07,161.8,260.68,160.67Z"/><path d="M131.51,23.06c-20.07,4.71-39,14.5-52.89,30a89.66,89.66,0,0,0-22.42,61.36c0.87,43.38,33.37,78.43,73.42,91.26,21.84,7,45.52,8,68.06,4.13,20.86-3.55,40.9-12.28,53.88-29.59C277,146.32,272.93,95.84,248.86,62.5c-26.16-36.23-75-48.79-117.34-39.45-2,.45-1.18,3.58.86,3.13,35.82-7.91,77,.16,103.72,26.36,28.59,28,37.85,74.84,21.26,111.4-8.88,19.58-24.94,32.82-45.36,39.13s-42.8,7.28-63.68,3.75c-39.6-6.69-76.94-33.59-86.55-74.12C56,108.27,61.1,81.54,76.06,61.28c13.61-18.44,34.28-29.92,56.32-35.09C134.41,25.71,133.55,22.58,131.51,23.06Z"/><path d="M142.54,103.26c-0.12,3.64,2.16,5.86,5,7.87,5.19,3.68,10.68,7,16,10.47,6.15,4,16.8,9,22.25.93S182,107,176,103.15c-8.8-5.61-19.27-9.39-29.44-5.2-1.91.78-1.07,3.93,0.86,3.13,7.15-2.94,14.54-1.68,21.32,1.66,5,2.44,16.38,8.16,15.34,14.95-1.76,11.49-15.29,3.43-20.41.1l-9.3-6.06c-2.81-1.83-8.7-4.33-8.56-8.46,0.07-2.09-3.18-2.09-3.25,0h0Z"/><path d="M260,156.87c-5.51,41.78-38.72,71.37-75.23,88.2a239.83,239.83,0,0,1-36.67,13.24c-9.67,2.67-19.72,5.43-29.75,6.23-14.78,1.17-29.64.25-44.4,1.88-12.71,1.4-29.24,4.32-34.72,17.63h3.13c-3.62-9.47,2.35-18.59,5.75-27.18a90,90,0,0,0,5-18.7c2.24-13.75,2.11-27.76,1.37-41.63-1.56-29.37-6.82-59.55-1.85-88.85C55.29,92,61.56,77.34,73,66a1.62,1.62,0,0,0-2.3-2.3C50.08,84.19,46.79,113.58,47.58,141.3c0.88,30.91,7,62.27,2.81,93.14a91.21,91.21,0,0,1-6.14,23.23c-3.65,8.65-8.69,17.76-5.06,27.25a1.64,1.64,0,0,0,3.13,0c5.55-13.47,25.57-14.93,37.9-15.81,14.09-1,28.48.19,42.48-1.78,22.68-3.19,45.65-10.8,66.26-20.67,17.29-8.27,33.62-19.18,46.79-33.2,14.8-15.75,24.62-35.1,27.46-56.59,0.27-2.07-3-2-3.25,0h0Z"/><path class="cls-1" d="M223.69,68.23c-3.71-3.82-8.91-5.86-14.14-6.83-16.3-3-32.91,3.47-49.47,2.65-9.1-.45-18-3.1-27.1-3.49-7.6-.33-15.83,1.32-21.45,6.17C98.59,71.47,87.67,82.08,83.74,95.28s-0.21,28.8,10.16,38c9.44,8.34,22.71,10.73,33.31,17.55,11.21,7.21,19,19.12,31,25.11,13.18,6.62,29,4.79,43.18.63,9.36-2.75,18.61-6.55,26-12.89s12.82-15.54,12.85-25.29c0-10.84-6.34-20.62-8.34-31.27C229.37,93.78,233.1,77.93,223.69,68.23Zm-38.64,52.36c-1.63,3.59-6.14,5.12-10,4.54s-7.34-2.78-10.64-4.94l-15.49-10.1c-2.47-1.61-5.27-3.94-4.72-6.83A6.05,6.05,0,0,1,147,99.51c4.89-2.27,10.62-2.24,15.82-.82a49.77,49.77,0,0,1,14.41,7.19,23.47,23.47,0,0,1,6.7,6.07C185.57,114.48,186.3,117.83,185.05,120.59Z"/><path d="M224.83,67.08c-12-11.31-30.2-8.15-45-6.1-10.29,1.43-19.93,1.88-30.22.19-8.06-1.32-16.19-3-24.37-1.87-6.71.95-11.39,4.31-17.32,7.12A50.57,50.57,0,0,0,91.1,78.85c-8.76,10.1-12.54,23.59-9.4,36.69,3.52,14.64,14.37,22.77,27.59,28.45,7.61,3.27,15.21,6.31,21.72,11.57,6,4.85,11.14,10.68,17.11,15.57,12.16,10,26.66,12.24,41.92,9.7s32.43-8.36,42.84-20.41c5-5.74,8.43-12.9,8.89-20.54,0.56-9.36-3.82-17.93-6.6-26.61-4.77-14.85.88-33.74-10.34-46.17-1.4-1.55-3.69.75-2.3,2.3,8.9,9.85,5.59,24.6,7.52,36.67,2.37,14.88,12.84,28.18,6,43.49-6.45,14.42-21.58,21.53-36,25.64-14.81,4.23-31.55,5.79-45.08-3-10.82-7-18.34-18.06-29.68-24.43-11.94-6.7-26.88-9.31-35.19-21.19-7.74-11.07-8.24-26.12-1.89-37.92a43.58,43.58,0,0,1,14.25-15.5,68.56,68.56,0,0,1,8.78-4.59c2.94-1.4,5.32-3.52,8.48-4.62,8.28-2.89,17-1.65,25.45-.24,8.06,1.35,15.89,2.42,24.08,1.79,16.57-1.29,39.43-9.19,53.26,3.89C224.06,70.82,226.36,68.52,224.83,67.08Z"/><path d="M183.65,119.77c-5.06,8.78-16,.65-21.55-3l-9.3-6.06c-1.44-.94-3.72-2.06-4.88-3.32-1.36-1.48-1.77-4.87-.31-6.37,2-2.07,7.81-1.84,10.39-1.58a32.22,32.22,0,0,1,11.44,3.66c6.11,3.13,16.75,8.79,14,17.06-0.65,2,2.48,2.84,3.13.86,3.53-10.79-9.66-18.12-17.72-21.78-6.56-3-20.08-6.24-25.21,1.14-2.15,3.1-1.06,6.41,1.45,8.86,4.28,4.18,10.33,7.09,15.31,10.34,7.29,4.75,19.81,12.57,26,1.84A1.62,1.62,0,0,0,183.65,119.77Z"/><path class="cls-2" d="M212.33,83.19c-5.26-7.37-16.34-6-25.26-4.49a202.52,202.52,0,0,1-40.88,2.86c-11.09-.35-24.29-0.68-30.72,8.36,0,0-5.27,7.95-3.9,13.06s5.41,9.12,9.84,12c9.56,6.28,21.36,8.55,30.79,15,6.87,4.73,12.13,11.45,18.69,16.6s15.44,8.72,23.2,5.66c7.46-2.94,11.56-11.08,13.1-18.95s1.21-16,3.18-23.81C212.63,100.68,217.65,90.64,212.33,83.19Zm-27.28,37.4c-1.63,3.59-6.14,5.12-10,4.54s-7.34-2.78-10.64-4.94l-15.49-10.1c-2.47-1.61-5.91-4.14-4.72-6.83,2.48-5.59,13.42-6,18.62-4.56a49.77,49.77,0,0,1,14.41,7.19,23.47,23.47,0,0,1,6.7,6.07C185.57,114.48,186.3,117.83,185.05,120.59Z"/><path d="M213.48,82c-5.51-6.9-14.71-6.66-22.71-5.56-13.6,1.87-26.9,3.71-40.67,3.54-15.68-.19-35.77-1.17-40,18-1.79,8.12,4.88,14.8,11.19,18.79,9.47,6,20.82,8.24,30.1,14.6,9.52,6.53,16,16.84,26.86,21.46,8.26,3.51,17.5,2.68,23.67-4.27,7.79-8.77,7.44-20.9,8.79-31.83s9.65-23.87,3-34.45c-1.11-1.77-3.92-.14-2.8,1.64,5.35,8.55-1,19-2.71,27.82-1.85,9.57-.86,19.88-5.05,28.91-4.72,10.16-14.62,13.51-24.74,8.72-8.67-4.1-14.5-12.07-21.77-18-6.45-5.3-14-8.31-21.65-11.46s-20.07-8-21.87-17.41c-1.27-6.61,4.46-14.25,10.12-16.86,7.66-3.53,16.7-2.63,24.89-2.45a205,205,0,0,0,33.56-2.06c9.23-1.33,22.56-5.51,29.48,3.16C212.49,86,214.77,83.66,213.48,82Z"/><path d="M183.65,119.77c-5.37,9.32-17.29-.22-23.1-4-3.36-2.19-6.73-4.36-10.07-6.57-2-1.29-5.86-3.11-4.12-6.38,0.58-1.09,2.73-1.88,3.71-2.22,5.91-2.08,12.43-.8,17.92,1.79,6.42,3,18.32,9.14,15.49,17.78-0.65,2,2.48,2.84,3.13.86,3.6-11-10.23-18.55-18.45-22.12-6.76-2.93-17.89-4.58-23.75,1.27-2.48,2.48-2.67,5.37-.39,8,3.92,4.59,10.66,7.59,15.65,10.85,7.37,4.8,20.38,13.44,26.77,2.34A1.62,1.62,0,0,0,183.65,119.77Z"/><path d="M91.57,54.92C85.34,61,81.11,69.23,77.45,77a90.39,90.39,0,0,0-7.32,23c-2.7,15.63-1,32.39,8,45.82,10.69,16,29.49,23.31,46.1,31.4l31.87,15.52c7.58,3.69,15.84,8.75,24.63,7.32,4.59-.75,8.69-3,12.8-5.1a89.47,89.47,0,0,1,15.71-5.78c8.82-2.5,17.62-4.93,25-10.6,13.35-10.24,20.74-27.26,23.63-43.45,5.85-32.68-6.73-67.34-34.31-86.47-19-13.2-41-16.12-63.54-12.47-12.49,2-24.8,5.27-37.08,8.3-5.87,1.44-11.73,2.9-17.6,4.31-5.35,1.29-9.57,2.55-13.8,6.16-1.59,1.36.71,3.65,2.3,2.3,4.21-3.59,9-4.51,14.22-5.77C113,50.25,118,49,122.9,47.81c9.57-2.36,19.16-4.72,28.8-6.77,19.76-4.21,40-5.21,58.66,3.67,29.73,14.14,46.9,45.12,45.66,77.68-0.59,15.55-5.25,31.76-14.67,44.31a46.06,46.06,0,0,1-22.2,16.1c-8,2.78-16.44,4.32-24.21,7.85-3.93,1.79-7.69,4.24-11.85,5.47-6,1.75-11.37.35-16.89-2.13-9.13-4.1-18-8.75-27-13.13-8.71-4.24-17.44-8.46-26.14-12.73-8-3.94-16.18-8.07-23-13.92-13.85-11.83-19.14-29.59-17.54-47.36a84.61,84.61,0,0,1,6.71-25.79c3.59-8.32,8.13-17.48,14.68-23.84C95.37,55.76,93.07,53.47,91.57,54.92Z"/></svg>